<?xml version="1.0" encoding="UTF-8"?>
<svg id="Layer_2" data-name="Layer 2" xmlns="http://www.w3.org/2000/svg" viewBox="0 0 239.85 376.01">
  <defs>
    <style>
      .cls-1 {
        fill: #f0d897;
      }

      .cls-2 {
        fill: #fdedcc;
      }

      .cls-3 {
        fill: #f7e8bd;
      }

      .cls-4 {
        fill: #fff;
      }

      .cls-5 {
        fill: #f1e0a7;
      }

      .cls-6 {
        fill: #273b24;
      }

      .cls-7 {
        fill: #0e8374;
      }

      .cls-8 {
        fill: #ecc373;
      }

      .cls-9 {
        fill: #805328;
      }

      .cls-10 {
        fill: #efcd85;
      }

      .cls-11 {
        fill: #ebb65d;
      }
    </style>
  </defs>
  <g id="Layer_1-2" data-name="Layer 1">
    <g>
      <path class="cls-7" d="M105.01,252.96c.09,0,.18,0,.27,0,1.08,0,1.23-.07,2.15.54,3.18,2.12,4.73,3.85,8.85,4.71,7.21,1.5,10.73-.89,16.12-4.71.73-.52,1.3-.52,2.15-.54.18,0,.36,0,.54,0,15,.52,30.61,2,45.65,2.95,1.61.1,3.23.17,4.83.27,5.46.35,10.92.72,16.38,1.07,12.09.78,24.73,2.21,36.79,2.42.36,0,.72,0,1.08,0-.1,1.5.27,3.11-.31,4.53l-86.57-5.6c-5.37-.35-10.72-.95-16.11-1.07-.46-.01-.93-.29-1.36-.28-.83.02-3.21,2.15-4.24,2.75-6.93,4-15.1,4.15-22.11.27-1.01-.56-3.94-2.99-4.52-3.03s-1.08.28-1.62.29c-24.76.76-50.38,3.19-75.19,4.84-9.17.61-18.35,1.49-27.53,1.88l-.27-4.57c.36,0,.72,0,1.08,0,18.95-.33,38.98-2.55,58.01-3.76,15.25-.97,30.66-2.35,45.92-2.95Z"/>
      <path class="cls-3" d="M64.72,235.23v19.6c-1.88.3-3.82.47-5.64,1.07-19.03,1.21-39.05,3.43-58.01,3.76.6-.5,1.55-2.04,2.02-2.41,1.98-1.55,3.96-3.36,5.92-5.09,1.34-1.18,1.95-3.34,4.01-3.51l3.55-3.97c16.87-.04,32.36-4.51,48.15-9.45Z"/>
      <path class="cls-7" d="M97.49,127.01c2.26-2.53,4.74-4.85,7.14-7.24.29-.29.33-.76.38-.81s.52-.1.81-.38c4.73-4.73,9.4-9.66,14.32-14.1l22.21,22.13.23.51-.23.31-22.4,22.13c-7.65-7.34-14.93-15.08-22.46-22.54ZM118.64,120.09c-7.76,1.11-7.83,13.27.5,14.13,10.49,1.08,10.46-15.71-.5-14.13Z"/>
      <path class="cls-7" d="M127.83,201.66c4.84,4.68,9.33,9.75,14.25,14.36l.22.76-22.4,22.47-22.4-22.46c4.45-4.92,9.35-9.61,14.1-14.32.29-.29.34-.76.38-.81s.52-.1.81-.38c.91-.9,6.59-6.88,7.11-6.88,2.56,1.99,4.75,4.6,7.11,6.88.3.29.75.33.81.38ZM118.09,210.05c-.58.11-1.66.7-2.17,1.05-7.04,4.86-1.22,15.81,6.99,12.36,7.33-3.08,4.36-15.13-4.82-13.41Z"/>
      <path class="cls-7" d="M105.01,30.33s-.1-.52-.38-.81c-2.4-2.4-4.88-4.72-7.14-7.24,7.42-7.4,14.65-14.99,22.19-22.27l22.4,22.13.23.51-22.17,22.17c-4.93-4.44-9.6-9.37-14.32-14.1-.29-.29-.76-.33-.81-.38ZM118.9,15.36c-7.85,1.02-8.07,12.47-.7,13.99,11.33,2.34,11.66-15.42.7-13.99Z"/>
      <path class="cls-5" d="M185.3,238.46l.27,17.72c-1.61-.1-3.23-.17-4.83-.27-.3-.51-1.13-.18-1.61-.27-.03,0-.11-.19-.54-.27-5.66-1.02-11.48-1.98-17.19-2.69v-20.95c8.79,1.53,15.54,4.18,23.9,6.71Z"/>
      <path class="cls-2" d="M238.75,259.67c-12.06-.21-24.7-1.63-36.79-2.42l-.27-14.77c7.17,1.26,14.48,1.87,21.75,2.29,1.37.97,2.31,2.98,3.62,3.9.44.31,1,.24,1.51.64.66.52,1.89,2.69,2.51,3.13,2.05,1.45,3.98,3.34,5.94,5.07.61.54,1.12,1.56,1.73,2.17Z"/>
      <path class="cls-8" d="M110.38,234.43c-.61.19-.52.69-.55,1.19-.24,4.26.21,8.76.02,13.04-1.52.93-3.72,2.71-4.57,4.3-.09,0-.18,0-.27,0-.22-.53-.72-.65-1.2-.82-2.95-1.03-7.22-.89-10.35-.79v-20.95c6.3.22,11.29,1.22,16.92,4.03Z"/>
      <path class="cls-1" d="M161.4,231.74v20.95c-4.27-.52-8.6-.85-12.89-1.07l.02-19.49-.82-1.73c5.06-.07,8.81.49,13.7,1.34Z"/>
      <path class="cls-3" d="M201.68,242.48l.27,14.77c-5.46-.35-10.93-.73-16.38-1.07l-.27-17.72c5.34,1.62,10.88,3.06,16.38,4.03Z"/>
      <path class="cls-5" d="M75.46,232.28v20.95c-3.59.48-7.17,1.03-10.74,1.61v-19.6c3.79-1.19,6.8-2.13,10.74-2.95Z"/>
      <path class="cls-10" d="M147.71,230.4l.82,1.73-.02,19.49c-3.4-.18-6.77-.55-10.21,0l-.27-20.14c3.45-.71,6.14-1.02,9.67-1.07Z"/>
      <path class="cls-1" d="M85.4,230.67l-.27,21.22c-3.2.29-6.48.92-9.67,1.34v-20.95c3.33-.7,6.53-1.33,9.94-1.61Z"/>
      <path class="cls-11" d="M129.18,234.7v13.43c-5.8-3.19-13.71-2.89-19.34.54.2-4.28-.26-8.78-.02-13.04.03-.5-.06-1.01.55-1.19,3.84,1.91,6.93,3.97,9.53,7.51,2.23-2.8,4.97-5.18,8.11-6.94.47-.26.97-.21,1.16-.31Z"/>
      <path class="cls-10" d="M93.46,230.4v20.95c-2.6.08-5.72.3-8.33.54l.27-21.22c2.71-.23,5.32-.37,8.06-.27Z"/>
      <path class="cls-8" d="M138.04,231.47l.27,20.14c-1.08.17-2.68.3-3.22,1.34-.18,0-.36,0-.54,0-1.01-1.8-3.59-3.86-5.37-4.83v-13.43c3.4-1.74,4.99-2.42,8.86-3.22Z"/>
      <g>
        <path class="cls-4" d="M127.83,201.66c-.06-.06-.52-.1-.81-.38-2.36-2.28-4.55-4.88-7.11-6.88-.52,0-6.2,5.97-7.11,6.88-.29.29-.76.33-.81.38l-51.73-51.82-14.47,14.51-.31.23-.51-.23-22.12-22.23,14.22-14.47c.07-.48-1.57-2.28-2.03-2.8-3.75-4.23-8.41-8.02-12.23-12.23l-14.94,14.36c-.51.09-6.68-6.44-7.36-7.37l.26-.55,21.87-21.59,29.69,29.69-14.19,14.52c-.12.33.06.51.22.76,1.38,2.06,4.89,4.32,6.46,6.45h.53c7.42-6.8,14.28-14.22,21.51-21.22l.26-.55-.26-.55-36.41-36.38-.13-.4c.69-.99,6.84-7.39,7.39-7.39l44.69,44.51-14.22,14.44-.23.32.23.51,21.94,21.86,14.52-14.19.76.22c2.21,2.43,4.89,4.56,6.85,7.13-4.39,5.15-9.79,9.55-14.22,14.73l21.9,21.9,21.82-21.65-13.95-14.44c-.35-.35-.35-.75,0-1.1l29.91-29.1,6.88,7.32-21.71,21.83c-.09.5,6.18,6.44,7.1,7.09l.4-.13,44.03-44.09-21.7-22.04c-.12-.33.06-.51.22-.76,1.44-2.14,5.09-4.5,6.73-6.72l29.96,29.42-81.79,82.18Z"/>
        <path class="cls-4" d="M105.01,30.33l-44.29,44.68c2,1.59,4.29,5.03,6.28,6.36.25.17.43.35.76.22,4.97-4.61,9.48-9.8,14.56-14.21l.55.26,29.37,29.91-7.32,7.15-22.1-21.98-7.06,7.06,29.25,29.17s-.1.52-.38.81c-2.39,2.4-4.88,4.72-7.14,7.24-17.27-17.09-34.86-34.18-51.97-51.55l-.37-.64c17.13-17.82,34.85-35.08,52.35-52.54,2.26,2.53,4.74,4.85,7.14,7.24.29.29.33.76.38.81Z"/>
        <path class="cls-4" d="M164.81,45.13l22.35,22.09-44.73,44.73-52.17-52c-.12-.33.06-.51.22-.76.42-.62,5.97-6.18,6.58-6.58.17-.12.31-.28.55-.26l.4.13,44.41,44.17,29.15-29.6-6.82-6.9-22.06,22-7.1-6.82-.22-.76,29.43-29.43Z"/>
        <path class="cls-4" d="M194.62,75.2l44.63,44.63-74.71,74.28-6.78-6.96v-.53s66.72-66.79,66.72-66.79l-36.91-37.14c-.25-.31-.03-.44.13-.68.43-.62,6.45-6.68,6.92-6.81Z"/>
        <path class="cls-4" d="M110.1,278.47c.26.2,2.15,5.26,2.43,6.04.14.4,2.09,5.97,1.47,5.78l-2.02-1.47c.35,6.53.76,13.06,1.08,19.6.37,7.51,2.1,16.92-3,23.32-2.94,3.69-8.52,2.57-12.07.35-1.1-.69-2.89-2.6-3.73-2.99-.33-.16-.5-.18-.87-.08-.98.25-4.28,2.99-5.74,3.68-1.62.76-3.09,1.03-4.82,1.36.06,1.35.29,5.9-.76,6.76-.85.7-2.86-.66-3.63-1.26-2.76-2.15-3.24-5.19-3.79-8.44-1.62,1.38-2.5,3.53-4.32,4.67-2.65,1.67-6.98,1.71-8.31-1.58-.26-.64-.46-3.28-1.2-3.1-2.4,2.84-5.5,6.49-9.43,6.95-8.66,1.02-8.8-5.56-9.78-12.19-.05-.36-.12-.84-.53-.41-.13.14-.84,2.82-1.3,3.67-2.97,5.54-13.49,13.21-19.79,13.78-2.44.22-5.06.19-6.53-2.05-2.38-3.63-.43-13.03,1.7-16.74.1,4.2-4.71,13.97,2.95,13.98,6.66.01,15.69-6.38,19.88-11.3,1.02-1.2,2.31-2.75,2.29-4.42-.05-3.56-2.59-10.87-3.91-14.38-.72-1.91-2.37-4.34-2.53-6.35-.05-.64.53-4.47.79-4.66.34-.25.59.25.76.44,6.99,8.11,6.61,22.88,9.84,32.59,1.63,4.9,8.42,2.94,11.66.65,1.18-.83,4.95-4.96,5.81-4.95,1.09.01.55,2.49.68,3.34.63,4.16,7.1,2.56,9.38.56.8-.7,2.5-3.3,3.37-3.37.75-.07,1.9,1.19,2.7,1.59,3.79,1.89,8.48.47,11.65-1.98-1.66-1.82-4.23-3.78-6.83-3.63-.94.06-1.85.63-2.83.54-.31-.3,1.57-4.6,2.32-5.07,2.29-1.45,10.61-2.36,13.39-2.18,2.13.14,9.62,1.98,10.49,4.03.24.56-1.33,3.47-1.77,3.87-.88.82-6.28,2.36-6.43,2.97-.23.95,4.3,2.22,5.23,2.29,2.31.18,6.41-.29,6.84-3.12.34-2.2.12-6.74.03-9.12-.24-6.34-1.16-12.73-1.62-19.06-.21-2.83,0-6.04-.27-8.86-.35-3.59-1.89-6.1.34-9.61.15-.23.4-.72.74-.47ZM96.81,320.36c-1.28-.17-3.19,0-4.57,0-.06,0-.4.25-.27.54.17.4,2.79,2.67,3.22,2.68.62.02,3.58-1.71,4.17-2.28-.68-.26-1.89-.85-2.55-.94ZM81.1,336.21c.53-.51-2.03-3.89-3.22-3.49-.66.69,2.02,4.08,3.22,3.49Z"/>
        <path class="cls-4" d="M176.73,329.25c-.86,2.65-4.17,7.32-6.99,7.92-1.25.27-4.86-.02-6.14-.33-2.53-.62-4.59-3.08-6.9-4.09-.96,0-2.41,1.56-3.28,2.08-4.17,2.49-10.02,4.45-13.62.03-.94-1.16-2.89-5.43-4.07-5.62-2.35-.38-5.15,3.28-6.17,5.1-1.38,2.48-3.66,9.55-5.78,10.87-4.82,3.01-7.51-6.7-7.77-9.93-.12-1.5.18-8.91,1.07-9.8.84-.84.26,1.51.25,1.73-.06,2.86.03,6.31.29,9.14.35,3.83,3.74,7.98,6.93,3.72,2.79-3.73,3.59-8.85,7.04-12.84,6.91-7.98,7.7,4.47,13.04,5.21,2.92.4,6.14-.59,8.63-2.06.89-.53-.12-1.21-.61-1.67-2.13-1.98-4.88-2.71-7.64-1.62.14-1.71.82-3.81,2.32-4.79,2.2-1.43,10.41-2.16,13.11-1.92,1.68.15,7.97,1.98,8.42,3.68.19.7-.99,2.91-1.56,3.44-.98.92-5.92,2.35-5.92,2.67,0,1.78,5.8,2.38,7.13,2.29,8.03-.52,7.23-8.08,12.23-11.94,6.23-4.8,8.11,3.75,7.16,8.5-.59,2.96-1.5,3.58-4.57,3.09-2.31-.37-4.43-2.38-6.62-2.87ZM179.68,325.45c.15.22,4.55,1.97,4.95,1.91,1.79-.27-.55-2.67-1.21-3.09-1.61-1.01-4.49.08-3.74,1.18ZM161.94,325.47c-.49-.65-5.94-1.11-6.98-.54l1.61,1.75c1.17,1.62,3.54.39,4.91-.47.23-.14.72-.4.46-.74Z"/>
        <path class="cls-4" d="M228.54,299.15l.13-1.62c-7.65,1.78-15.12,4.24-22.63,6.51-.72,2.24-2.34,5.37-1.19,7.65.37.74.88,1.1,1.74.84.34-.1,1.33-1.45,1.27-.36-.1,1.8-1.8,4.06-3.64,2.56-2.01-1.64-.55-7.98.28-10.21l-9.5,3.25c-.02,2.62-.1,5.27-.05,7.9.09,4.63.12,14.37,3.4,17.82,2.59,2.73,1.31.21,1.2-.93-.32-3.41.11-7.78,3.95-8.9s9.77,1.48,13.8,2.43c2.45.58,6.68.85,8.67,1.54,1.05.37.55,1.11.2,2.05-1,2.71-2.08,1.75-4.41,2.31-4.37,1.05-9.32,4.86-13.64,6.5-1.27.48-4.77.96-5.36,1.36-.43.29-.43,1.12-.68,1.2-1.13.37-.44-.85-.72-1.31-.08-.13-2.21-.87-2.72-1.17-3.91-2.26-4.89-6.06-5.29-10.29l-.67-19.48c-.22-.39-1.25.15-1.63.27-2.59.83-5.05,2.13-7.65,2.96-1.01-3.17,8.98-5.21,9.15-5.8-.24-4.28-.37-8.6-.82-12.86-.31-2.97-1.65-7.94-1.63-10.48,0-.5.88-3.42,1.1-3.62.49-.45.98,1.2,1.08,1.47.5,1.38.8,3.16,1.03,4.61,1.02,6.48,1.39,13.41,1.38,19.97.31.3,7.07-2.17,8.12-2.49,5.32-1.64,10.88-3.31,16.26-4.69,3.55-.91,7.61-2.03,11.22-2.48.65-.08.4.38.26.8-.39,1.16-1.13,1.81-1.75,2.68h-.27ZM217.26,330.03c-4.54-.74-8.86-3.14-13.57-2.7-1.28.12-3.33,1.32-3.28,2.79,0,.26,1.67,4.59,1.84,4.85.82,1.19,2.74.56,3.94.24,2.02-.53,9.12-3.27,10.62-4.42.3-.23.55-.28.44-.76Z"/>
        <path class="cls-4" d="M103.13,304.52c.06-.11.33-1.55.27-1.61-9.61,2.49-18.91,6.17-28.31,9.37-.58.41.13,2.92.12,3.64,0,.33-.44,2.99-.55,3.1-.38.39-.49-.02-.54-.4-.21-1.67.01-3.37-.53-5.12-.1-.33.2-.45-.4-.39l-17.6,6.97c-.17-.17.46-1.38.63-1.65,1.15-1.85,6.35-3.74,8.51-4.65,2.61-1.11,5.34-1.94,7.94-3.09-.18-3.35-3.16-9.19.77-11.3,1.11-.59,4.82-.71,3.09-1.99-1.19-.88-2.1-.2-3.21.39-.67-1.52,1.5-3.32,1.62-4.18.19-1.36-1.65-5.27-2.82-6.05-.93-.61-.96.64-1.58.54-1.06-.19-2.3-3.1-2.33-4.16-.09-3.71,2.57-2.11,4.17-.39l3.08,5.11c.26-2.33-.14-10.31,3.6-9.93,2.08.21,2.46,2.02,1.77,3.76-.33.23-1.83-1.44-3.04-1.04-2.06.68-.4,10.48-2.06,12.19,1.96.52,3.91,1.66,4.62,3.69,1.31,3.76-5.23,2.68-6.92,4.22-1.71,1.55.7,6.24.69,8.33.46.07.9-.02,1.35-.12,6.05-1.26,14.01-4.92,20.4-6.72,3.18-.9,6.41-1.8,9.67-2.28-.13,1.52-1.27,2.83-2.15,4.03l-.27-.27Z"/>
        <path class="cls-4" d="M120.58,279.28c.26.24,2.4,5.75,2.69,6.57.58,1.62,1.47,3.54,1.21,5.24l-2.01-1.61c.04,1.47-.07,2.96,0,4.43.31,6.25,1.22,12.55,1.61,18.8.39,6.33,1.06,12.44-.4,18.66-.16.7-1.21,4.55-1.48,4.83-.39.4-.48-.03-.53-.4-.15-1.1.25-1.97.28-2.95.35-11.86-1.33-24.9-2.16-36.81-.17-2.42-.06-5.1-.27-7.51-.35-3.94-1.57-4.83.52-8.89.11-.21.08-.83.56-.38Z"/>
        <path class="cls-4" d="M183.69,294.32c.12-.23.89-2.07.8-2.15-5.81,1.09-11.49,2.98-17.12,4.76-10.9,3.44-21.73,7.26-32.29,11.62.27-2.71,3.19-3.7,5.38-4.69,9.32-4.2,21.49-7.71,31.41-10.48,1.83-.51,14.1-3.99,14.77-3.36-.23,1.71-1.63,3.26-2.68,4.56l-.27-.27Z"/>
        <path class="cls-4" d="M180.2,360.65c.48.08,2.85-.11,2.96,0,.12.12-.2.95.13,1.08,1.48-1.94,4.71-1.89,5.91.27,1.19-1.85,4.34-2.3,5.78-.6.36.43,1.07,2.42,1.07,2.89v7.39h-3.22v-7.65c0-.33-.78-1.15-1.22-1.22-.55-.08-2,.52-2,.95v7.92h-3.22v-7.92c0-1.46-3.22-.88-3.22,0v7.92h-2.95v-11.01Z"/>
        <polygon class="cls-4" points="134.99 44.85 142.32 52.18 134.71 59.59 127.82 52.21 134.99 44.85"/>
        <path class="cls-4" d="M60.06,164.89c1.1.77,7.36,6.36,7.36,7.1l-7.16,7.37-7.36-7.37,7.16-7.1Z"/>
        <path class="cls-4" d="M164.81,105.01c.31-.08.55,0,.76.22.65,1.22,6.41,6.29,6.53,6.9.08.41-.39.87-.63,1.18-.53.69-5.1,5.33-5.63,5.65-.51.3-.86.43-1.37,0-2.12-2.34-4.68-4.36-6.57-6.86,0-.49,6.43-6.96,6.91-7.09Z"/>
        <rect class="cls-4" x="144.74" y="32.2" width="10.23" height="10.23" transform="translate(18.59 118.67) rotate(-45.77)"/>
        <path class="cls-4" d="M74.85,179.94c.37-.1.49.04.76.22.87.59,5.45,5.23,6.18,6.18.17.22.4.35.4.68l-7.16,7.1-7.09-7.1c0-.49,6.43-6.96,6.91-7.09Z"/>
        <path class="cls-4" d="M29.54,295.93c.02-1.37-.37-3.04-.94-4.29-.21-.47-1.75-3.05-2.28-2.68-2.99,6.61-10.63,9.39-17.19,11.01l10.02-5.95c1.96-1.42,3.93-2.83,5.55-4.65-2.27-1.78-2.94-4.32-2.12-7.09,2.75-.38,4.51,2.5,5.83,4.45l1.66,3.3c.49-2.63-.26-12.19,4.58-10.88,1.61.44,2.02,1.94,1.56,3.46-.36,1.18-2.08-1.08-3.54-.59-1.75.58-1.06,9.23-1.32,11.03-.13.93-.66,2.78-1.81,2.89Z"/>
        <path class="cls-4" d="M20.95,356.62v11.41c0,.11-.55,1.25-.68,1.47-2.02,3.1-8.24,3.22-10.28.1-.15-.23-.85-1.72-.85-1.84v-10.74c0-.6,3.22-.6,3.22,0v10.74c0,1.45,3.73,2.58,5.1.54,1.34-2,.08-8.63.57-11.24.26-.8,2.22-.32,2.92-.44Z"/>
        <path class="cls-4" d="M179.13,371.66c-.66-.14-2.79.22-3.18-.04-.33-.21-.61-2.92-1.28-3.15-.74.04-4.17-.26-4.43.12-.27.4-.64,2.9-.8,3.04-.22.19-2.63-.08-3.2.03l4.87-15c.91.03,2.6-.39,3.16.39l4.86,14.61ZM174.02,366.02c.18-.18-.91-4.53-1.61-4.83l-1.34,4.83h2.95Z"/>
        <path class="cls-4" d="M150.12,371.66c-.67-.14-2.79.22-3.18-.04-.32-.2-.75-3.05-.87-3.16-.26-.22-3.92.12-4.64-.04-.29.08-.85,3.09-1,3.21-.23.2-2.63-.08-3.2.03l5.1-14.91c.87-.17,2.35-.44,2.93.3l4.86,14.61ZM143.94,361.18c-.42-.5-.46.16-.56.38-.58,1.26-.76,3.11-1.32,4.45h3.22c-.43-.65-1.18-4.64-1.34-4.83Z"/>
        <path class="cls-4" d="M230.42,355.81v15.84c-.45-.07-2.59.1-2.69,0-.12-.12.2-.95-.13-1.08-.93,1.08-2.21,1.51-3.64,1.22-6.28-1.27-3.58-15.64,3.51-10.36v-5.64h2.95ZM224.97,362.85c-2.52.75-1.68,8.78,1.94,6.24.8-.56.78-4.96.3-5.64-.41-.57-1.57-.8-2.24-.6Z"/>
        <path class="cls-4" d="M127.56,298.34c2.32-1.14,4.96-2.62,7.12-4.02.96-.63,6.41-4.46,6.29-5.21-.04-.25-1.8-1.75-2.06-3.32-.83-4.85,2.34-3.37,4.37-.88l2.81,4.84c.54-2.69-.12-5.61,1.11-8.16,1.71-3.55,5.66-1.94,4.53,1.71-.39.42-2.31-1.62-3.37-.83-2.08,1.55.37,10.78-2.41,12.91l-1.24-3.85c-.5-1.05-1.09-2.08-1.98-2.85-3,6.15-8.6,8.03-14.64,9.93l-.54-.27Z"/>
        <path class="cls-4" d="M98.53,360.68c.24.21,1.36,5.35,1.64,6.15,1.01-.53,1.78-5.88,2.18-6.14.38-.25,2.53.1,3.19-.03.01.22,0,.43-.02.65-.15,1.31-3.89,11.55-4.64,12.82-1.23,2.06-2.52,1.95-4.74,1.84.08-.57-.18-1.74.12-2.17.27-.38,2.57-.07,2.58-2.26,0-1.99-2.83-7.34-3.38-9.79-.08-.36-.17-.71-.12-1.09.57.11,2.97-.17,3.2.03Z"/>
        <path class="cls-4" d="M212.43,367.09c.11,1.38,1.09,2.42,2.52,2.39.7-.01,2.71-.81,2.96-.75.31.07.98,1.38.93,1.68-.14.76-2.62,1.41-3.35,1.48-5.13.53-7.45-3.99-5.8-8.48,1.52-4.14,7.81-4.29,9.11.12.16.54.67,3.55-.06,3.55h-6.31ZM215.92,364.94c.56-.58-.68-3.02-2.57-1.9-.43.26-1.5,1.76-.52,1.9.39.06,2.99.11,3.1,0Z"/>
        <path class="cls-4" d="M201.15,367.09c.68,4.18,4.36,1.38,5.48,1.64.31.07.98,1.38.93,1.68-.14.76-2.63,1.41-3.35,1.48-8.17.81-7.97-11-1.87-11.53,2.19-.19,4.11.4,4.99,2.55.25.62,1.04,4.17.12,4.17h-6.31ZM204.64,364.94c.36-3.11-3.12-2.83-3.5-.14l3.5.14Z"/>
        <path class="cls-4" d="M33.3,371.66c-.7-.11-2.74.27-3.11-.25-.42-.61.09-6.18-.18-7.62-.28-1.49-2.94-1.25-3.16-.05-.26,1.4.35,6.99-.12,7.67-.36.52-2.41.14-3.11.25v-11.01c.48.08,2.85-.11,2.96,0,.12.12-.2.95.13,1.08,1.37-1.77,4.67-1.94,5.9.01.17.26.68,1.54.68,1.74v8.19Z"/>
        <path class="cls-4" d="M61.77,367.09h-6.45c.04.54.29,1.24.65,1.63,1.65,1.8,4.36-.35,5,.09.29.2.61,1.48.5,1.85-.35,1.12-4.28,1.34-5.36,1.13-6.28-1.19-5.28-13.32,2.71-11.3,2.91.74,3.17,4.08,2.95,6.59ZM58.82,364.94c.22-2.71-3.09-3.04-3.49-.4-.08.54.05.35.4.4.94.13,2.12-.09,3.09,0Z"/>
        <path class="cls-4" d="M121.29,370.49c-.9.95-2.77,1.51-4.06,1.44-7.63-.43-6.33-13.85,2.2-11.34,3.83,1.13,4.33,7.3,1.86,9.9ZM116.74,362.85c-1.81.54-1.93,6.17.28,6.61,3.78.76,3.64-7.79-.28-6.61Z"/>
        <path class="cls-4" d="M80.3,364.14c-.77-.14-2.14.2-2.79.02-.17-.05-.75-2.69-2.7-1.34-2.43,1.7,4.14,2.51,5.07,3.74,3.87,5.09-8.23,8.03-8.97,1.76.21-.59,2.63-.55,2.9-.38.11.07.25.85.56,1.18,1.11,1.15,3.84.44,2.84-1.23-.62-1.03-6.59-.6-5.94-4.56.7-4.32,9.51-3.98,9.03.81Z"/>
        <path class="cls-4" d="M176.98,314.72c.04-2.02-.79-4.32-2.04-5.88-1.75-2.19-1.44-.1-2.53-.39-1.12-.3-2.06-2.71-2.15-3.79-.14-1.76-.07-3.05,1.9-2.43,1.39.44,2.86,2.44,3.59,3.66.63,1.04.96,2.33,1.76,3.2.46-2.52-.32-9.68,3.36-9.95,2.45-.18,3.1,1.97,1.88,3.77-5.16-4.23-3.68,4.21-3.88,7.13-.1,1.39-.27,4.36-1.89,4.69Z"/>
        <path class="cls-4" d="M125.68,362.8c-.1-.1-1.51.1-1.61,0-.08-.08-.08-2.08,0-2.15.1-.1,1.17.21,1.5-.25.42-.59-.31-2.36,1.04-3.79,1.31-1.38,2.99-1.05,4.71-1.06-.07.42.1,2.33,0,2.42-.18.18-2.46-.64-2.68,1.5-.21,1.96,1.85.89,2.15,1.18.09.09-.07,1.76,0,2.15h-2.15s0,8.86,0,8.86h-2.95c-.24-1.12.32-8.55,0-8.86Z"/>
        <path class="cls-4" d="M94.53,295.39c.44-1.36-2.24-6.98-3.36-6.98-.16,0-.56.96-1.29.77-1.97-.51-2.7-6.2-1.62-6.43,3.14-.68,5.35,5.1,6.8,7,.36-2.7-.13-6.55,1.5-8.84,1.94-2.73,5.76-.02,3.74,2.66-.84-.46-2.51-1.76-3.33-.64-1.27,1.73-.53,7.8-.89,10.11-.06.37-.93,3-1.55,2.35Z"/>
        <path class="cls-4" d="M44.01,360.68c.26.17,1.31,5.17,1.61,6.04.12.35.08.82.57.9.19-.89,1.37-6.72,1.64-6.96.23-.2,2.63.08,3.2-.03-.47,1.32-3.09,10.87-3.65,11.03-.23.06-2.92.05-3.03-.04l-3.52-10.98c.66.14,2.8-.21,3.19.03Z"/>
        <path class="cls-4" d="M225.85,283.3c-.49.5-2.79-2.02-3.74-.65-1.22,1.76-.5,8.06-.89,10.39-.06.36-1.03,2.95-1.55,2.35-.05-2.07-.74-4.26-2.04-5.88-1.69-2.11-1.54-.21-2.53-.44-2.17-.51-2.98-6.61-1.26-6.53,2.87.15,5.17,4.98,6.23,7.21.64-2.62.08-5.52,1.08-8.05,1.4-3.56,5.7-2.23,4.7,1.61Z"/>
        <path class="cls-4" d="M89.16,362.8c-.1-.1-1.51.1-1.61,0-.08-.08-.08-2.08,0-2.15.11-.1,1.51.11,1.61,0,.16-.16-.25-2.63.15-2.69.49.09,2.96-.11,3.07,0,.12.12-.12,2.57,0,2.69.11.1,1.51-.11,1.61,0,.09.09-.07,1.62,0,2-.05.34-1.62.07-1.62.15v6.04c0,.53,1.42.31,1.58.43.14.11.44,2.22.29,2.37-1.41.3-3.2.51-4.29-.65-.13-.14-.8-1.27-.8-1.35,0-.94.24-6.61,0-6.85Z"/>
        <path class="cls-4" d="M154.96,371.66h-3.22v-15.71c0-.6,3.22-.6,3.22,0v15.71Z"/>
        <path class="cls-4" d="M140.72,346.15c.64.62-3.14,2.58-3.57,2.73-1.71.61-6.55,1.28-6.35-1.49.17-2.41,4.31-3.69,4.56-6.08-3.01.02-2.16-1.21-2.12-3.09,0-.53-.31-1.06-.24-1.56.38-2.84,6.29-.37,6.99,1.76,1.27,3.84-2.49,2.38-3.44,3.13-.33.26-1.21,2.31-1.84,2.99-.8.85-4.98,2.98-1.87,3.46,2.81.44,5.36-.94,7.9-1.86ZM136.16,339.97c.23-1.72-1.56-3.19-2.3-1.08-.49,1.39,1.23,1.03,2.3,1.08ZM139.11,339.97c.08-1.22-1.29-2-2.41-1.88-.31,2.19.61,1.96,2.41,1.88Z"/>
        <path class="cls-4" d="M61.98,343.78c.58.99-1.02,3.28-1.43,4.26l-4.25-2.4c-.82.16-1.19,2.71-2.14,2.61-.22-.02-3.19-2-3.4-2.25-.91-1.09.88-3.2,1.07-4.43.39-.28,3.74,2.36,4.43,2.68.74-.54.96-2.6,1.88-2.69.4-.04,3.72,2.02,3.83,2.22Z"/>
        <path class="cls-4" d="M54.11,298.35c.53-.02.26.75.21,1.01-.29,1.54-3.56,7.14-.22,7.34,1.26.07,4.93-1.34,3.91-2.86-.85-1.28-3.42-1.52-3.13-3.08.56-3.09,3.38-.8,4.46.68,2.88,3.93-2.64,8.54-6.56,7.9-4.24-.69.7-10.97,1.33-10.99Z"/>
        <path class="cls-4" d="M140.67,315.32c.61,1.05-1.07,3.37-1.71,4.24l-4.01-2.68c-.38,0-1.3,2.96-2.03,2.85-.82-.13-3.63-2.13-3.75-3-.16-1.16,1.21-2.44,1.36-3.61.26-.19,3.95,2.23,4.43,2.68.41,0,1.19-2.8,1.91-2.93.5.39,3.69,2.25,3.8,2.45Z"/>
        <path class="cls-4" d="M188.26,336.75c.29,1.17-.73,1.44-1.19,2.16-1.18,1.87-3.47,8.85.92,6.7-.11,2.79-3.15,3.58-3.49.4-.25-2.39.41-4.81,1.61-6.85l-14.76,4.45c-1.54.28-.28-1.43.25-1.91.47-.43.99-.61,1.55-.86,4.48-1.96,10.42-2.49,15.11-4.09Z"/>
        <path class="cls-4" d="M63.92,360.65c.48.08,2.85-.11,2.96,0,.14.14-.3,1.14.26,1.07.28-1.42,1.75-1.42,2.96-1.34-.25.61-.14,2.34-.38,2.7-.35.53-2.84-.19-2.84,1.19v7.39h-2.95v-11.01Z"/>
        <path class="cls-4" d="M23.36,303.72c-.62,3.69-3.89,10.93-1.84,14.32,1.24,2.06,2.34.34,3.32-.9.27,2.03-1.1,7.24-4.04,5.11-.44-.32-.68-.78-.88-1.27-1.61-4.02.15-13.05,2.58-16.65.23-.35.3-.73.86-.62Z"/>
        <path class="cls-4" d="M85.94,371.66h-3.22v-10.88c0-.6,3.22-.6,3.22,0v10.88Z"/>
        <path class="cls-4" d="M54.52,297v-7.12c0-.95-.98-4.31-1.41-5.31-.32-.74-1.51-2.35-1.55-2.76-.02-.16.69-2.97.81-3.08.76-.64,2.04,1.89,2.28,2.42,1.72,3.88,1.99,10.13.74,14.16-.17.55-.28,1.44-.87,1.68Z"/>
        <rect class="cls-4" x="35.99" y="360.65" width="2.95" height="11.01"/>
        <path class="cls-4" d="M92.92,337.02c-.09,1.14.35,1.88,1.53,1.4.24-.1,1.9-1.54,1.7-.46-.27,1.44-2.87,2.83-3.47,4.32-1.33,3.31,1.45,4.44,4.09,2.75.37-.23,1.76-1.88,2.06-1.57-1.24,4.39-8.49,6.95-7.45.2.14-.9.93-2.03,1-2.77.15-1.52-.83-2.08-.01-4.29.67-1.82,2.47-2.64,2.15-.28-.29,2.11-1.36.42-1.6.7Z"/>
        <path class="cls-4" d="M204.64,298.08c-.28.3-.55.03-.54-.41.01-1.11.32-2.21.29-3.5-.04-1.48-.36-3.76-.67-5.23-.4-1.93-2.17-4.9-1.91-6.44.39-2.26,1-2.39,2.08-.44,1.49,2.69,2.01,6.68,1.83,9.71-.04.72-.85,6.08-1.07,6.31Z"/>
        <path class="cls-4" d="M156.03,338.63c-.11,1.19.02,1.93,1.35,1.49.29-.09,2.08-1.64,1.87-.55-.37,1.96-3.66,2.8-3.78,5.63-.13,2.87,2.3,2.67,4.23,1.54.8-.47,1.27-1.44,2.22-1.54-1.67,4.48-8.69,6.99-7.45-.2.15-.87.96-1.83,1-2.49.09-1.41-.98-4.12.52-5.38,2.26-1.9,2.1,3.32.03,1.5Z"/>
        <path class="cls-4" d="M156.03,303.18c-.28,2.31-4.24,10.5-.61,11.51,1.22.34,1.39-1.23,2.49-1.3.35,4.42-4.9,6.19-5.38,1.22-.52-5.39.65-7.6,3.5-11.7v.27Z"/>
        <path class="cls-4" d="M165.43,293.24c-.25-.25,3.52-4.76,3.87-5.39.67-1.19,1.76-3.62.3-4.57-.87-.57-2.58.85-2.29-.11.64-2.14,4.46-3.67,4.83-.55.43,3.54-3.33,9.29-6.72,10.61Z"/>
        <path class="cls-4" d="M220.48,303.45c-.49,1.91-3.79,9.15-1.34,10.34,1.29.63,2.12-1.01,2.42-.67.3,2.06-1.61,4.73-3.63,2.96s-.61-7.83.44-10.04c.13-.28,1.7-3.03,2.11-2.58Z"/>
        <path class="cls-4" d="M217.71,343.54c.68.83-.58,3.46-1.17,3.65-.76.25-3.91-1.77-4.09-2.3-.27-.81,1.14-2.91,1.75-3.56.27-.06,3.26,1.9,3.51,2.21Z"/>
        <path class="cls-4" d="M164.09,366.56h-6.18c.09-.64-.24-2.22.25-2.57.29-.21,5.37-.21,5.67,0,.49.34.17,1.94.25,2.57Z"/>
        <path class="cls-4" d="M38.94,337.02c.27.29-3.03,6.2-.81,7.4.82.44,2.03-1.48,1.88-.29-.13,1.03-.74,2.36-1.99,2.28-2.62-.16-1.39-6.16-.57-7.79.11-.22,1.1-2.01,1.49-1.6Z"/>
        <path class="cls-4" d="M71.71,338.63c-.36,1.57-1.98,5.99-.27,6.87.63.32,1.67-1.09,1.62-.01-.07,1.55-1.89,2.9-2.93,1.31-1.3-1.98-.07-6.38,1.31-8.16h.27Z"/>
        <path class="cls-4" d="M83.16,355.58c.38-.12,2.25-.12,2.53.08.37.26.37,1.97.13,2.32-.26.37-2.51.38-2.85.13-.42-.29-.47-2.31.19-2.53Z"/>
        <rect class="cls-4" x="35.99" y="355.81" width="2.96" height="2.15"/>
        <path class="cls-4" d="M103.39,304.79c-.46.62-.73,1.4-1.48,1.87-.26-1.01,1.03-1.8,1.21-2.14l.27.27Z"/>
        <path class="cls-4" d="M127.56,298.34l.54.27c-.31.1-.85.86-1.61.54-.21-.8.54-.54,1.07-.8Z"/>
        <path class="cls-4" d="M228.54,299.15h.27c-.2.28-.99,1.82-1.21,1.88-.46.14-.56-.32-.39-.53.02-.02.38.07.52-.2.26-.48-.02-1.34.81-1.15Z"/>
        <path class="cls-4" d="M183.96,294.58c-.37.46-.68,1.42-1.34,1.34,0-.58.83-1.16,1.07-1.61l.27.27Z"/>
        <path class="cls-4" d="M156.03,302.91c.05-.07-.04-.38,0-.54.87-.15.67.52,0,.8v-.27Z"/>
        <path class="cls-4" d="M71.71,338.63h-.27c.14-.18.22-.54.53-.54.15.48-.26.5-.27.54Z"/>
      </g>
      <path class="cls-6" d="M132.4,253.49c-5.39,3.82-8.91,6.21-16.12,4.71-4.12-.86-5.67-2.59-8.85-4.71,7.14-7.02,17.87-7.16,24.98,0Z"/>
      <path class="cls-6" d="M93.46,251.35c3.13-.1,7.4-.23,10.35.79.48.17.98.29,1.2.82-15.26.61-30.67,1.98-45.92,2.95,1.82-.61,3.76-.77,5.64-1.07,3.58-.58,7.15-1.13,10.74-1.61,3.19-.43,6.47-1.05,9.67-1.34,2.61-.24,5.72-.45,8.33-.54Z"/>
      <path class="cls-6" d="M148.51,251.62c4.29.23,8.62.55,12.89,1.07,5.71.7,11.52,1.67,17.19,2.69l.54.27c.48.09,1.31-.24,1.61.27-15.05-.96-30.65-2.43-45.65-2.95.54-1.05,2.15-1.17,3.22-1.34,3.43-.55,6.8-.18,10.21,0Z"/>
      <path class="cls-9" d="M129.18,248.12c1.78.98,4.36,3.04,5.37,4.83-.85.02-1.42.02-2.15.54-7.11-7.16-17.84-7.02-24.98,0-.92-.61-1.07-.53-2.15-.54.85-1.59,3.04-3.37,4.57-4.3,5.63-3.42,13.53-3.72,19.34-.54Z"/>
      <path class="cls-9" d="M179.13,255.64l-.54-.27c.42.08.51.26.54.27Z"/>
    </g>
  </g>
</svg>